<?xml version="1.0" encoding="utf-8"?>
<!-- Generated by IcoMoon.io -->
<!DOCTYPE svg PUBLIC "-//W3C//DTD SVG 1.1//EN" "http://www.w3.org/Graphics/SVG/1.1/DTD/svg11.dtd">
<svg version="1.1" xmlns="http://www.w3.org/2000/svg" xmlns:xlink="http://www.w3.org/1999/xlink" width="32" height="32" viewBox="0 0 32 32">
<g>
</g>
	<path d="M16 1c-8.3 0-15 6.7-15 15s6.7 15 15 15c8.3 0 15-6.7 15-15s-6.7-15-15-15zM16 28.5c-6.9 0-12.6-5.6-12.6-12.5s5.7-12.6 12.6-12.6c6.9 0 12.5 5.6 12.5 12.5 0 7-5.6 12.6-12.5 12.6z" fill="#000000"></path>
	<path d="M25.2 13c0 0 0 0 0 0 0-0.1 0-0.1 0-0.1s0 0 0 0 0 0 0-0.1c0 0 0 0 0 0s0 0 0-0.1c0 0 0 0 0 0s0 0 0 0 0 0 0 0 0 0 0 0 0 0 0 0 0 0 0 0 0 0 0 0 0 0 0 0l-8.5-5.7c-0.3-0.2-0.6-0.2-0.9 0l-8.8 5.5c0 0 0 0 0 0s0 0 0 0 0 0 0 0 0 0 0 0 0 0 0 0 0 0 0 0 0 0 0 0 0 0 0 0 0 0 0 0.1c0 0 0 0 0 0s0 0 0 0.1c0 0 0 0 0 0s0 0 0 0.1c0 0 0 0 0 0s0 0.1 0 0.1v5.7c0 0 0 0.1 0 0.1s0 0 0 0 0 0 0 0.1c0 0 0 0 0 0s0 0 0 0.1c0 0 0 0 0 0s0 0 0 0.1c0 0 0 0 0 0s0 0 0 0 0 0 0 0 0 0 0 0 0 0 0 0 0 0 0 0 0 0 0 0 0 0 0 0l8.5 5.7c0.1 0.1 0.3 0.1 0.4 0.1 0.2 0 0.3 0 0.4-0.1l8.5-5.7c0 0 0 0 0 0s0 0 0 0 0 0 0 0 0 0 0 0 0 0 0 0 0 0 0 0 0 0 0 0 0 0 0 0 0 0 0-0.1c0 0 0 0 0 0s0 0 0-0.1c0 0 0 0 0 0s0 0 0-0.1c0 0 0 0 0 0s0-0.1 0-0.1v-5.7c0.5 0.2 0.4 0.2 0.4 0.1zM16.8 9l6.2 4.2-2.8 1.8-3.5-2.3v-3.7zM15.2 9v3.7l-3.5 2.3-2.8-1.9 6.3-4.1zM8.3 14.6l2 1.3-2 1.3v-2.6zM15.2 23l-6.2-4.2 2.8-1.9 3.5 2.3v3.8zM16 17.9l-2.9-1.9 2.8-1.9 2.8 1.9-2.7 1.9zM16.8 23v-3.7l3.5-2.3 2.8 1.9-6.3 4.1zM23.7 17.3l-2-1.3 2-1.3v2.6z" fill="#000000"></path>
</svg>
