<?xml version="1.0" encoding="utf-8"?>
<!-- Generated by IcoMoon.io -->
<!DOCTYPE svg PUBLIC "-//W3C//DTD SVG 1.1//EN" "http://www.w3.org/Graphics/SVG/1.1/DTD/svg11.dtd">
<svg version="1.1" xmlns="http://www.w3.org/2000/svg" xmlns:xlink="http://www.w3.org/1999/xlink" width="32" height="32" viewBox="0 0 32 32">
<g>
</g>
	<path d="M9.871 23.545c0 2.019-1.637 3.655-3.655 3.655s-3.655-1.637-3.655-3.655c0-2.019 1.637-3.655 3.655-3.655s3.655 1.637 3.655 3.655z" fill="#000000"></path>
	<path d="M25.785 27.631c0 1.21-0.981 2.191-2.191 2.191s-2.191-0.981-2.191-2.191c0-1.21 0.981-2.191 2.191-2.191s2.191 0.981 2.191 2.191z" fill="#000000"></path>
	<path d="M21.6 26.732l-11.754-2.769c-0.037 0.283-0.098 0.566-0.197 0.825l11.754 2.757c0.012-0.283 0.074-0.566 0.197-0.812z" fill="#000000"></path>
	<path d="M29.44 9.231c0 1.366-1.108 2.474-2.474 2.474s-2.474-1.108-2.474-2.474c0-1.366 1.108-2.474 2.474-2.474s2.474 1.108 2.474 2.474z" fill="#000000"></path>
	<path d="M26.117 11.532l-2.56 13.908c0.012 0 0.025 0 0.025 0 0.283 0 0.554 0.062 0.812 0.16l2.56-13.908c-0.295 0-0.578-0.062-0.837-0.16z" fill="#000000"></path>
	<path d="M14.855 3.311c0 0.625-0.507 1.132-1.132 1.132s-1.132-0.507-1.132-1.132c0-0.625 0.507-1.132 1.132-1.132s1.132 0.507 1.132 1.132z" fill="#000000"></path>
	<path d="M13.723 4.443c-0.295 0-0.566-0.111-0.763-0.295l-5.883 15.852c0.283 0.074 0.542 0.172 0.8 0.295l5.883-15.852c-0.012 0-0.025 0-0.037 0z" fill="#000000"></path>
	<path d="M14.868 3.348c-0.012 0.308-0.135 0.578-0.345 0.775l10.068 4.492c0.074-0.283 0.185-0.542 0.345-0.775l-10.068-4.492z" fill="#000000"></path>
	<path d="M16.345 15.52c0 1.108-0.898 2.006-2.006 2.006s-2.006-0.898-2.006-2.006c0-1.108 0.898-2.006 2.006-2.006s2.006 0.898 2.006 2.006z" fill="#000000"></path>
	<path d="M12.652 16.591l-4.16 4.098c0.222 0.172 0.418 0.382 0.603 0.603l4.148-4.111c-0.234-0.148-0.443-0.345-0.591-0.591z" fill="#000000"></path>
	<path d="M15.865 16.812c-0.185 0.222-0.418 0.394-0.677 0.517l6.757 8.849c0.185-0.209 0.418-0.394 0.677-0.517l-6.757-8.849z" fill="#000000"></path>
	<path d="M16.283 15.028l8.702-4.332c-0.172-0.222-0.295-0.48-0.382-0.763l-8.714 4.332c0.185 0.222 0.32 0.48 0.394 0.763z" fill="#000000"></path>
	<path d="M14.338 13.514c0.111 0 0.222 0.012 0.332 0.025l-0.455-9.206c-0.148 0.062-0.308 0.111-0.48 0.111-0.135 0-0.258-0.025-0.369-0.062l0.455 9.206c0.16-0.049 0.332-0.074 0.517-0.074z" fill="#000000"></path>
</svg>
