<?xml version="1.0" encoding="utf-8"?>
<!-- Generated by IcoMoon.io -->
<!DOCTYPE svg PUBLIC "-//W3C//DTD SVG 1.1//EN" "http://www.w3.org/Graphics/SVG/1.1/DTD/svg11.dtd">

<svg version="1.1" xmlns="http://www.w3.org/2000/svg" xmlns:xlink="http://www.w3.org/1999/xlink" width="704" height="32" viewBox="0 0 704 32">
<defs>
<g id="icon-twitter">
	<path class="path1" d="M30.72 6.869c-1.085 0.482-2.248 0.805-3.47 0.952 1.248-0.747 2.206-1.931 2.656-3.341-1.166 0.691-2.459 1.195-3.834 1.466-1.102-1.174-2.672-1.907-4.41-1.907-3.336 0-6.040 2.704-6.040 6.038 0 0.474 0.053 0.934 0.157 1.376-5.019-0.251-9.47-2.656-12.448-6.31-0.522 0.891-0.821 1.93-0.821 3.037 0 2.096 1.067 3.944 2.688 5.027-0.99-0.032-1.922-0.302-2.736-0.755 0 0.026 0 0.050 0 0.075 0 2.926 2.083 5.366 4.845 5.923-0.506 0.138-1.040 0.211-1.592 0.211-0.389 0-0.766-0.037-1.136-0.107 0.768 2.4 3 4.146 5.642 4.194-2.067 1.621-4.67 2.586-7.501 2.586-0.488 0-0.968-0.029-1.44-0.085 2.672 1.714 5.846 2.714 9.259 2.714 11.109 0 17.184-9.203 17.184-17.186 0-0.261-0.005-0.522-0.018-0.781 1.181-0.851 2.203-1.915 3.014-3.126z"></path>
</g>
<g id="icon-mail">
	<path class="path1" d="M2.55 8.458c0.781 0.421 11.598 6.23 12.002 6.446 0.402 0.216 0.923 0.32 1.448 0.32 0.526 0 1.048-0.104 1.45-0.322 0.403-0.216 11.219-6.026 12-6.446 0.782-0.419 1.522-1.736 0.086-1.736h-27.070c-1.435 0-0.698 1.317 0.085 1.738zM29.781 11.658c-0.888 0.464-11.787 6.162-12.331 6.446s-0.923 0.322-1.45 0.322c-0.525 0-0.904-0.037-1.448-0.322s-11.445-5.984-12.331-6.446c-0.626-0.326-0.621 0.056-0.621 0.35 0 0.294 0 11.736 0 11.736 0 0.672 0.894 1.536 1.587 1.536h25.627c0.694 0 1.586-0.864 1.586-1.534 0 0 0-11.442 0-11.736 0-0.296 0.006-0.678-0.619-0.352z"></path>
</g>
<g id="icon-linkedin">
	<path class="path1" d="M8.122 4.88c0 1.701-1.256 3.078-3.322 3.078-1.944 0-3.2-1.378-3.2-3.078 0-1.741 1.298-3.078 3.282-3.078s3.2 1.338 3.24 3.078zM1.763 30.198v-19.808h6.157v19.808h-6.157zM11.605 16.709c0-2.47-0.082-4.536-0.163-6.318h5.347l0.285 2.755h0.122c0.81-1.298 2.795-3.2 6.117-3.2 4.050 0 7.088 2.714 7.088 8.547v11.707h-6.157v-10.978c0-2.552-0.893-4.294-3.12-4.294-1.701 0-2.712 1.174-3.158 2.309-0.163 0.405-0.203 0.971-0.203 1.539v11.424h-6.157v-13.491z"></path>
</g>
<g id="icon-info">
	<path class="path1" d="M19.891 0c2.144 0 3.216 1.462 3.216 3.133 0 2.086-1.862 4.018-4.285 4.018-2.032 0-3.216-1.2-3.16-3.182 0-1.672 1.408-3.968 4.229-3.968zM13.294 32c-1.693 0-2.933-1.043-1.749-5.637l1.942-8.146c0.338-1.304 0.394-1.827 0-1.827-0.509 0-2.704 0.901-4.003 1.789l-0.845-1.41c4.117-3.498 8.851-5.547 10.882-5.547 1.691 0 1.971 2.035 1.128 5.166l-2.226 8.563c-0.394 1.514-0.226 2.035 0.168 2.035 0.509 0 2.171-0.629 3.806-1.933l0.96 1.304c-4.002 4.074-8.373 5.642-10.064 5.642z"></path>
</g>
<g id="icon-googleplus">
	<path class="path1" d="M3.184 8.942c0 2.389 0.798 4.115 2.371 5.128 1.288 0.83 2.784 0.955 3.562 0.955 0.189 0 0.339-0.008 0.445-0.014 0 0-0.246 1.605 0.944 3.194l-0.054-0.002c-2.062 0-8.79 0.432-8.79 5.963 0 5.627 6.179 5.912 7.418 5.912 0.098 0 0.154-0.002 0.154-0.002 0.014 0 0.102 0.003 0.253 0.003 0.795 0 2.851-0.099 4.762-1.029 2.477-1.202 3.734-3.294 3.734-6.216 0-2.824-1.914-4.504-3.312-5.733-0.853-0.749-1.59-1.395-1.59-2.024 0-0.64 0.538-1.122 1.219-1.731 1.101-0.986 2.141-2.389 2.141-5.042 0-2.333-0.302-3.898-2.166-4.89 0.195-0.099 0.882-0.171 1.222-0.219 1.010-0.138 2.486-0.294 2.486-1.118v-0.158h-7.357c-0.074 0.002-7.44 0.275-7.44 7.022zM15.061 23.363c0.141 2.25-1.784 3.91-4.674 4.12-2.934 0.216-5.352-1.106-5.493-3.355-0.067-1.080 0.406-2.138 1.336-2.981 0.944-0.853 2.237-1.379 3.646-1.485 0.166-0.010 0.331-0.018 0.496-0.018 2.715 0 4.555 1.597 4.688 3.718zM13.139 7.402c0.722 2.539-0.368 5.194-2.104 5.683-0.2 0.056-0.406 0.085-0.614 0.085-1.592 0-3.168-1.61-3.752-3.827-0.326-1.246-0.301-2.334 0.074-3.382 0.368-1.029 1.029-1.726 1.861-1.96 0.2-0.058 0.408-0.085 0.616-0.085 1.92 0 3.155 0.797 3.92 3.486zM25.538 12.931v-4.8h-3.040v4.8h-4.8v3.040h4.8v4.8h3.040v-4.8h4.8v-3.040h-4.8z"></path>
</g>
<g id="icon-github">
	<path class="path1" d="M21.088 18.096c-1.149 0-2.080 1.29-2.080 2.878 0 1.59 0.931 2.88 2.080 2.88s2.080-1.29 2.080-2.88c-0.002-1.59-0.933-2.878-2.080-2.878zM28.33 10.602c0.237-0.584 0.248-3.904-1.014-7.082 0 0-2.899 0.317-7.283 3.326-0.92-0.254-2.477-0.381-4.032-0.381-1.557 0-3.112 0.128-4.034 0.381-4.382-3.010-7.28-3.326-7.28-3.326-1.262 3.178-1.253 6.498-1.014 7.082-1.485 1.613-2.392 3.549-2.392 6.194 0 11.498 9.539 11.682 11.947 11.682 0.546 0 1.63 0.002 2.774 0.003 1.144-0.002 2.229-0.003 2.771-0.003 2.41 0 11.947-0.184 11.947-11.682 0-2.645-0.906-4.581-2.39-6.194zM16.045 27.064h-0.088c-6.035 0-10.736-0.72-10.736-6.586 0-1.405 0.498-2.709 1.674-3.79 1.966-1.803 5.29-0.848 9.062-0.848 0.014 0 0.030 0 0.045-0.002 0.016 0 0.030 0.002 0.043 0.002 3.773 0 7.098-0.955 9.062 0.848 1.176 1.082 1.672 2.386 1.672 3.79 0 5.866-4.698 6.586-10.734 6.586zM10.914 18.096c-1.149 0-2.080 1.29-2.080 2.878 0 1.59 0.931 2.88 2.080 2.88s2.080-1.29 2.080-2.88c0-1.59-0.931-2.878-2.080-2.878z"></path>
</g>
<g id="icon-flickr">
	<path class="path1" d="M7.877 22.4c-3.467 0-6.277-2.862-6.277-6.4s2.81-6.4 6.277-6.4c3.467 0 6.278 2.864 6.278 6.4s-2.811 6.4-6.278 6.4zM24.122 22.4c-3.469 0-6.282-2.862-6.282-6.4s2.813-6.4 6.282-6.4c3.466 0 6.278 2.864 6.278 6.4s-2.813 6.4-6.278 6.4z"></path>
</g>
<g id="icon-export">
	<path class="path1" d="M24 25.28h-20.8v-14.4h4.152c0 0 1.102-1.434 3.472-3.2h-9.224c-0.883 0-1.6 0.717-1.6 1.6v17.6c0 0.885 0.717 1.6 1.6 1.6h24c0.885 0 1.6-0.715 1.6-1.6v-5.994l-3.2 2.632v1.762zM21.379 14.16v5.68l10.621-8.322-10.621-7.998v5.008c-12.899 0.002-12.899 12.752-12.899 12.752 3.651-5.997 5.898-7.12 12.899-7.12z"></path>
</g>
<g id="icon-cross">
	<path class="path1" d="M22.958 21.043l-4.413-5.043 4.413-5.043c0.75-0.75 0.75-1.966 0-2.715-0.75-0.749-1.966-0.749-2.715 0l-4.243 4.85-4.242-4.848c-0.75-0.75-1.966-0.75-2.715 0s-0.749 1.966 0 2.715l4.411 5.042-4.413 5.043c-0.749 0.75-0.749 1.963 0 2.712 0.75 0.75 1.966 0.75 2.715 0l4.243-4.846 4.242 4.846c0.75 0.75 1.966 0.75 2.715 0s0.75-1.962 0.002-2.712z"></path>
</g>
<g id="icon-codepen">
	<path class="path1" d="M16 1c-8.3 0-15 6.7-15 15s6.7 15 15 15c8.3 0 15-6.7 15-15 0-8.3-6.7-15-15-15zM16 28.5c-6.9 0-12.6-5.6-12.6-12.5 0-6.9 5.7-12.6 12.6-12.6 6.9 0 12.5 5.6 12.5 12.5 0 7-5.6 12.6-12.5 12.6z"></path>
	<path class="path2" d="M25.2 13c0 0 0 0 0 0 0-0.1 0-0.1 0-0.1 0 0 0 0 0 0 0 0 0 0 0-0.1 0 0 0 0 0 0 0 0 0 0 0-0.1 0 0 0 0 0 0 0 0 0 0 0 0 0 0 0 0 0 0 0 0 0 0 0 0 0 0 0 0 0 0 0 0 0 0 0 0 0 0 0 0 0 0 0 0 0 0 0 0l-8.5-5.7c-0.3-0.2-0.6-0.2-0.9 0l-8.8 5.5c0 0 0 0 0 0s0 0 0 0 0 0 0 0 0 0 0 0 0 0 0 0 0 0 0 0 0 0 0 0 0 0 0 0 0 0 0 0.1c0 0 0 0 0 0 0 0 0 0 0 0.1 0 0 0 0 0 0 0 0 0 0 0 0.1 0 0 0 0 0 0 0 0 0 0.1 0 0.1v5.7c0 0 0 0.1 0 0.1s0 0 0 0 0 0 0 0.1c0 0 0 0 0 0 0 0 0 0 0 0.1 0 0 0 0 0 0 0 0 0 0 0 0.1 0 0 0 0 0 0 0 0 0 0 0 0 0 0 0 0 0 0 0 0 0 0 0 0 0 0 0 0 0 0 0 0 0 0 0 0 0 0 0 0 0 0 0 0 0 0 0 0l8.5 5.7c0.1 0.1 0.3 0.1 0.4 0.1 0.2 0 0.3 0 0.4-0.1l8.5-5.7c0 0 0 0 0 0s0 0 0 0 0 0 0 0 0 0 0 0 0 0 0 0 0 0 0 0 0 0 0 0 0 0 0 0 0 0 0-0.1c0 0 0 0 0 0 0 0 0 0 0-0.1 0 0 0 0 0 0 0 0 0 0 0-0.1 0 0 0 0 0 0 0 0 0-0.1 0-0.1v-5.7c0.5 0.2 0.4 0.2 0.4 0.1zM16.8 9l6.2 4.2-2.8 1.8-3.5-2.3v-3.7zM15.2 9v3.7l-3.5 2.3-2.8-1.9 6.3-4.1zM8.3 14.6l2 1.3-2 1.3v-2.6zM15.2 23l-6.2-4.2 2.8-1.9 3.5 2.3v3.8zM16 17.9l-2.9-1.9 2.8-1.9 2.8 1.9-2.7 1.9zM16.8 23v-3.7l3.5-2.3 2.8 1.9-6.3 4.1zM23.7 17.3l-2-1.3 2-1.3v2.6z"></path>
</g>
<g id="icon-checkmark">
	<path class="path1" d="M13.272 27.2c-0.696 0-1.355-0.325-1.778-0.885l-5.718-7.549c-0.744-0.982-0.55-2.381 0.432-3.125 0.984-0.746 2.381-0.55 3.125 0.432l3.762 4.966 9.459-15.186c0.651-1.045 2.027-1.365 3.074-0.714 1.045 0.65 1.365 2.027 0.712 3.072l-11.173 17.936c-0.389 0.626-1.059 1.018-1.794 1.050-0.034 0.002-0.067 0.002-0.101 0.002z"></path>
</g>
<g id="icon-arrow-up">
	<path class="path1" d="M24.773 18.299c-0.651-0.669-7.512-7.203-7.512-7.203-0.349-0.357-0.805-0.536-1.261-0.536-0.458 0-0.914 0.179-1.261 0.536 0 0-6.861 6.534-7.514 7.203-0.651 0.669-0.696 1.872 0 2.586 0.698 0.712 1.669 0.77 2.522 0l6.253-5.995 6.251 5.995c0.854 0.77 1.827 0.712 2.522 0 0.698-0.715 0.654-1.918 0-2.586z"></path>
</g>
<g id="icon-arrow-right">
	<path class="path1" d="M13.701 7.226c0.669 0.653 7.203 7.514 7.203 7.514 0.358 0.349 0.536 0.805 0.536 1.261s-0.178 0.912-0.536 1.261c0 0-6.534 6.861-7.203 7.512-0.669 0.653-1.87 0.698-2.586 0-0.714-0.696-0.77-1.667 0-2.52l5.997-6.253-5.995-6.253c-0.77-0.854-0.714-1.826 0-2.522s1.917-0.653 2.584 0z"></path>
</g>
<g id="icon-arrow-left">
	<path class="path1" d="M18.299 7.226c-0.669 0.653-7.203 7.514-7.203 7.514-0.357 0.349-0.534 0.805-0.534 1.261s0.178 0.912 0.534 1.261c0 0 6.534 6.861 7.203 7.512 0.669 0.653 1.872 0.698 2.586 0 0.712-0.696 0.768-1.667-0.002-2.52l-5.995-6.253 5.995-6.253c0.77-0.854 0.714-1.826 0.002-2.522-0.715-0.696-1.918-0.653-2.586 0z"></path>
</g>
<g id="icon-arrow-down">
	<path class="path1" d="M24.773 13.701c-0.651 0.669-7.512 7.205-7.512 7.205-0.349 0.357-0.805 0.534-1.261 0.534-0.458 0-0.914-0.178-1.261-0.534 0 0-6.861-6.536-7.514-7.205-0.651-0.669-0.696-1.87 0-2.586 0.698-0.714 1.669-0.77 2.522 0l6.253 5.997 6.251-5.995c0.854-0.77 1.827-0.714 2.522 0 0.698 0.714 0.654 1.917 0 2.584z"></path>
</g>
</defs>

<g fill="#000000">
	<use xlink:href="#icon-twitter" transform="translate(0 0)"></use>
	<use xlink:href="#icon-mail" transform="translate(48 0)"></use>
	<use xlink:href="#icon-linkedin" transform="translate(96 0)"></use>
	<use xlink:href="#icon-info" transform="translate(144 0)"></use>
	<use xlink:href="#icon-googleplus" transform="translate(192 0)"></use>
	<use xlink:href="#icon-github" transform="translate(240 0)"></use>
	<use xlink:href="#icon-flickr" transform="translate(288 0)"></use>
	<use xlink:href="#icon-export" transform="translate(336 0)"></use>
	<use xlink:href="#icon-cross" transform="translate(384 0)"></use>
	<use xlink:href="#icon-codepen" transform="translate(432 0)"></use>
	<use xlink:href="#icon-checkmark" transform="translate(480 0)"></use>
	<use xlink:href="#icon-arrow-up" transform="translate(528 0)"></use>
	<use xlink:href="#icon-arrow-right" transform="translate(576 0)"></use>
	<use xlink:href="#icon-arrow-left" transform="translate(624 0)"></use>
	<use xlink:href="#icon-arrow-down" transform="translate(672 0)"></use>
</g>

</svg>
